<?xml version="1.0" ?><svg data-name="Layer 1" id="Layer_1" viewBox="0 0 140 140" xmlns="http://www.w3.org/2000/svg"><defs><style>.cls-1{fill:#52b1b1;}.cls-2{fill:#525354;}.cls-3{fill:#ccbeb0;}.cls-4{fill:#fff;}.cls-5{fill:#d7dadb;}</style></defs><title/><circle class="cls-1" cx="70" cy="70" r="64"/><rect class="cls-2" height="98" rx="1" ry="1" width="64" x="39" y="22"/><rect class="cls-3" height="98" rx="1" ry="1" width="64" x="38" y="21"/><rect class="cls-2" height="90" rx="1" ry="1" width="56" x="43" y="26"/><rect class="cls-4" height="90" rx="1" ry="1" width="56" x="42" y="25"/><rect class="cls-2" height="4" rx="1" ry="1" width="32" x="54" y="35.79"/><rect class="cls-2" height="4" rx="1" ry="1" width="46" x="47" y="48.48"/><rect class="cls-2" height="4" rx="1" ry="1" width="46" x="47" y="60.18"/><rect class="cls-2" height="4" rx="1" ry="1" width="46" x="47" y="71.89"/><rect class="cls-2" height="4" rx="1" ry="1" width="46" x="47" y="83.59"/><rect class="cls-2" height="4" rx="1" ry="1" width="46" x="47" y="95.3"/><rect class="cls-2" height="4" rx="1" ry="1" width="32" x="55" y="24.5"/><rect class="cls-5" height="4" rx="1" ry="1" width="32" x="54" y="23.5"/></svg>